<?xml version="1.0" encoding="UTF-8"?>
<svg width="583px" height="807px" viewBox="0 0 583 807" version="1.1" xmlns="http://www.w3.org/2000/svg" xmlns:xlink="http://www.w3.org/1999/xlink">
    <title>logo_with_glasses</title>
    <g id="Page-1" stroke="none" stroke-width="1" fill="none" fill-rule="evenodd">
        <g id="logo" transform="translate(0.616792, 0.985313)" fill-rule="nonzero">
            <g id="Group" transform="translate(290.691604, 402.972805) scale(-1, 1) rotate(-180.000000) translate(-290.691604, -402.972805) translate(0.000000, 0.000000)">
                <path d="M54.7832084,803.530923 C46.1832084,800.330923 42.7832084,798.030923 35.0832084,790.030923 C27.2832084,782.030923 21.9832084,771.830923 18.2832084,757.930923 C16.2832084,750.630923 15.9832084,746.930923 15.8832084,732.430923 C15.8832084,723.130923 16.4832084,711.430923 17.2832084,706.430923 C19.5832084,690.730923 31.4832084,657.530923 38.3832084,647.330923 L41.3832084,642.730923 L39.1832084,636.630923 C37.2832084,631.430923 36.8832084,628.430923 36.8832084,617.930923 C36.8832084,606.430923 37.0832084,604.930923 39.5832084,599.630923 L42.2832084,593.930923 L39.2832084,591.630923 C34.6832084,588.330923 27.7832084,578.630923 25.3832084,572.130923 C24.1832084,569.030923 22.7832084,562.630923 22.1832084,557.930923 C20.3832084,543.330923 24.9832084,527.630923 33.3832084,519.430923 L37.1832084,515.730923 L33.7832084,510.130923 C27.0832084,499.030923 25.9832084,494.830923 25.9832084,479.930923 C25.9832084,467.830923 26.2832084,465.730923 28.5832084,459.730923 C35.6832084,441.030923 47.2832084,428.730923 61.2832084,424.930923 L65.6832084,423.830923 L65.0832084,416.630923 C64.5832084,410.030923 65.5832084,390.730923 66.8832084,381.730923 C67.3832084,378.030923 67.3832084,378.030923 63.1832084,376.930923 C43.9832084,372.030923 24.4832084,357.130923 14.0832084,339.430923 C9.38320837,331.530923 3.68320837,315.830923 1.48320837,304.830923 C0.583208371,300.830923 0.183208371,267.630923 0.0832083708,190.830923 C-0.116791629,83.6309232 -0.116791629,82.3309232 1.98320837,72.9309232 C4.98320837,59.6309232 9.38320837,49.8309232 16.7832084,39.7309232 C28.0832084,24.5309232 44.3832084,12.9309232 63.2832084,6.63092322 C85.0832084,-0.569076785 73.8832084,-0.169076785 255.483208,0.130923215 L418.883208,0.430923215 L426.683208,2.63092322 C438.383208,5.93092322 447.883208,9.53092322 457.383208,14.1309232 C471.883208,21.1309232 486.283208,38.0309232 493.983208,56.9309232 C498.783208,68.8309232 500.583208,80.0309232 501.183208,100.730923 C501.383208,111.230923 501.883208,119.930923 502.183208,119.930923 C502.983208,119.930923 523.583208,108.830923 526.383208,106.930923 C532.183208,102.830923 564.383208,86.0309232 567.483208,85.4309232 C571.683208,84.6309232 576.783208,87.8309232 579.483208,92.9309232 C581.283208,96.2309232 581.383208,100.930923 581.383208,194.930923 C581.383208,289.030923 581.283208,293.530923 579.483208,296.230923 C576.783208,300.430923 573.583208,302.230923 568.983208,302.330923 C565.683208,302.430923 562.983208,301.230923 554.883208,296.330923 C549.383208,292.930923 535.183208,285.230923 523.283208,279.130923 L501.683208,268.130923 L500.983208,273.230923 C500.683208,276.130923 500.383208,283.430923 500.383208,289.630923 C500.383208,306.830923 496.983208,320.730923 488.683208,337.430923 C479.583208,355.630923 470.583208,364.430923 451.183208,374.030923 C443.183208,378.030923 442.583208,378.730923 444.483208,380.630923 C445.783208,381.930923 447.283208,397.830923 447.383208,410.030923 C447.383208,420.830923 448.183208,424.930923 450.183208,424.930923 C452.683208,424.930923 465.683208,431.630923 469.783208,435.030923 C475.783208,440.130923 481.983208,449.130923 485.483208,458.230923 C489.883208,469.630923 490.683208,483.830923 487.483208,495.230923 C485.283208,503.130923 481.283208,512.230923 479.383208,513.430923 C477.683208,514.530923 478.283208,517.230923 480.783208,519.830923 C490.183208,529.730923 494.383208,553.530923 489.483208,569.030923 C486.983208,576.830923 481.083208,586.130923 475.283208,591.430923 L471.183208,595.130923 L473.383208,602.730923 C477.483208,616.630923 476.983208,630.730923 471.983208,639.530923 L469.683208,643.430923 L474.683208,653.430923 C486.883208,678.030923 492.983208,698.830923 493.983208,719.930923 C495.583208,751.530923 488.783208,775.030923 473.383208,790.930923 C466.683208,797.830923 460.283208,801.630923 451.483208,804.130923 C439.783208,807.330923 429.683208,806.130923 417.383208,799.930923 C404.583208,793.430923 397.283208,783.930923 382.983208,754.530923 L373.583208,735.430923 L363.183208,735.430923 L352.683208,735.430923 L349.283208,740.830923 C345.083208,747.430923 332.683208,759.230923 323.383208,765.430923 C313.783208,771.830923 299.783208,777.330923 285.683208,780.330923 C279.183208,781.730923 266.483208,784.630923 257.383208,786.930923 C230.183208,793.730923 222.583208,793.430923 215.883208,785.630923 C212.183208,781.330923 208.383208,771.230923 208.383208,765.730923 C208.383208,763.430923 207.983208,762.930923 206.683208,763.330923 C205.683208,763.630923 198.583208,764.830923 190.883208,765.930923 C183.183208,767.130923 174.183208,768.730923 170.883208,769.630923 C157.383208,773.030923 153.683208,772.430923 147.883208,765.730923 C143.983208,761.030923 142.383208,755.130923 142.383208,744.930923 C142.383208,738.230923 142.283208,737.930923 139.983208,737.930923 C138.683208,737.930923 136.883208,737.630923 136.083208,737.330923 C134.983208,736.930923 132.083208,741.630923 124.883208,755.130923 C119.483208,765.230923 112.883208,776.930923 110.183208,781.130923 C105.183208,789.030923 96.5832084,797.730923 91.0832084,800.530923 C79.6832084,806.430923 65.6832084,807.630923 54.7832084,803.530923 Z M80.4832084,778.330923 C87.3832084,774.930923 91.5832084,769.230923 100.583208,751.430923 C105.083208,742.630923 109.783208,733.630923 111.183208,731.530923 L113.583208,727.630923 L110.783208,725.530923 C106.283208,722.330923 101.483208,716.930923 97.0832084,710.030923 C93.4832084,704.430923 92.8832084,703.830923 91.7832084,705.330923 C89.7832084,708.130923 81.3832084,734.430923 81.3832084,738.030923 C81.3832084,747.530923 77.1832084,752.930923 69.8832084,752.930923 C58.8832084,752.930923 53.6832084,741.130923 55.5832084,719.830923 C56.9832084,702.230923 63.7832084,680.830923 70.1832084,673.630923 C71.5832084,672.030923 71.5832084,671.730923 70.3832084,670.930923 C69.5832084,670.330923 68.2832084,669.930923 67.4832084,669.930923 C66.6832084,669.930923 63.5832084,668.530923 60.6832084,666.930923 L55.2832084,663.830923 L51.2832084,672.430923 C42.8832084,690.730923 39.0832084,708.330923 39.0832084,728.930923 C39.0832084,747.130923 40.7832084,756.330923 45.6832084,765.830923 C52.9832084,780.030923 67.0832084,785.130923 80.4832084,778.330923 Z M447.583208,780.430923 C453.083208,778.530923 461.483208,770.430923 464.383208,764.230923 C467.883208,756.830923 469.483208,748.030923 470.083208,733.430923 C470.683208,717.630923 468.383208,700.730923 463.783208,687.130923 C460.783208,678.230923 453.283208,662.930923 452.683208,664.730923 C452.083208,666.230923 447.483208,668.730923 442.283208,670.330923 L438.583208,671.430923 L443.383208,681.130923 C446.483208,687.630923 449.183208,695.330923 451.383208,704.130923 C454.283208,715.930923 454.583208,718.430923 454.183208,728.030923 C453.783208,737.030923 453.283208,739.530923 451.083208,744.230923 C446.983208,752.430923 440.983208,755.430923 434.083208,752.530923 C429.083208,750.430923 427.383208,746.630923 427.383208,737.230923 C427.383208,732.930923 426.483208,725.830923 425.483208,721.430923 C424.483208,717.030923 423.383208,711.830923 422.983208,709.830923 C422.683208,707.930923 421.783208,705.430923 420.983208,704.430923 C419.783208,702.730923 419.483208,702.930923 416.583208,707.130923 C414.883208,709.630923 409.283208,715.530923 404.283208,720.230923 L395.083208,728.730923 L400.083208,737.630923 C402.883208,742.430923 407.483208,750.930923 410.283208,756.430923 C417.383208,770.130923 421.783208,775.730923 428.283208,779.130923 C434.483208,782.330923 440.583208,782.730923 447.583208,780.430923 Z M245.383208,765.030923 C249.483208,763.930923 261.183208,761.130923 271.283208,758.930923 C292.983208,754.130923 302.783208,750.530923 312.983208,743.730923 C325.383208,735.430923 331.083208,726.930923 335.383208,710.230923 C336.883208,704.130923 340.683208,703.630923 349.983208,708.030923 C355.883208,710.730923 357.983208,711.230923 364.383208,711.230923 C375.183208,711.330923 381.183208,709.030923 388.783208,701.830923 C399.083208,692.230923 404.383208,679.630923 404.383208,664.630923 C404.383208,659.830923 404.883208,656.830923 405.683208,656.130923 C406.283208,655.630923 411.083208,654.630923 416.283208,654.030923 C422.583208,653.330923 427.483208,652.130923 430.883208,650.530923 C437.483208,647.230923 445.783208,638.830923 449.083208,632.130923 C451.383208,627.430923 451.583208,626.030923 451.183208,618.630923 C450.483208,605.830923 446.183208,598.630923 434.983208,591.230923 C429.483208,587.530923 428.983208,588.030923 443.283208,582.830923 C453.783208,579.030923 460.883208,573.630923 464.683208,566.530923 C467.983208,560.230923 467.783208,548.430923 464.083208,540.430923 C462.483208,537.130923 460.383208,533.430923 459.283208,532.330923 C456.083208,528.930923 445.783208,524.630923 441.783208,525.130923 C439.183208,525.430923 438.383208,525.130923 438.383208,523.930923 C438.483208,520.830923 441.083208,517.830923 447.383208,513.630923 C454.983208,508.730923 459.383208,503.230923 462.383208,495.230923 C465.583208,486.830923 464.983208,471.930923 461.183208,463.730923 C455.683208,451.830923 445.083208,444.030923 431.183208,441.830923 C427.683208,441.230923 424.483208,440.330923 423.883208,439.830923 C423.283208,439.230923 422.783208,428.530923 422.583208,413.130923 C422.383208,390.530923 422.083208,387.230923 420.683208,386.230923 C419.383208,385.230923 384.583208,384.930923 254.683208,384.930923 L90.3832084,384.930923 L89.9832084,387.230923 C88.6832084,393.030923 88.6832084,398.730923 89.5832084,415.330923 C90.2832084,428.330923 90.2832084,434.230923 89.4832084,437.030923 C88.3832084,440.530923 88.0832084,440.730923 82.5832084,441.730923 C79.4832084,442.330923 74.3832084,443.730923 71.2832084,444.830923 C56.3832084,450.430923 48.3832084,465.430923 49.6832084,485.130923 C50.3832084,496.330923 54.2832084,503.030923 65.1832084,512.130923 C72.1832084,518.030923 73.4832084,519.530923 73.1832084,521.730923 C72.9832084,523.930923 72.0832084,524.730923 68.8832084,525.730923 C54.7832084,530.130923 51.5832084,532.730923 48.3832084,542.530923 C45.3832084,551.430923 45.5832084,558.730923 48.8832084,565.530923 C53.2832084,574.530923 61.8832084,580.630923 72.5832084,582.430923 C74.5832084,582.730923 77.2832084,583.930923 78.5832084,585.030923 L80.8832084,586.930923 L77.3832084,589.630923 C66.4832084,598.130923 64.3832084,601.630923 61.1832084,617.030923 C58.7832084,628.530923 65.2832084,642.030923 76.3832084,648.730923 C83.2832084,652.830923 86.9832084,653.830923 98.6832084,654.730923 L107.883208,655.430923 L107.583208,663.130923 C106.783208,683.230923 113.183208,697.330923 128.383208,708.430923 C132.983208,711.830923 142.883208,715.930923 146.283208,715.930923 C147.183208,715.830923 150.983208,712.930923 154.783208,709.330923 L161.583208,702.730923 L158.983208,697.930923 C155.383208,691.430923 153.483208,674.930923 155.083208,665.330923 C157.883208,648.930923 168.283208,635.430923 183.383208,628.130923 C195.383208,622.430923 199.283208,621.530923 212.883208,621.530923 C224.483208,621.530923 225.183208,621.630923 233.783208,625.230923 C238.683208,627.230923 243.783208,629.930923 245.083208,631.130923 L247.583208,633.430923 L250.683208,629.430923 C257.983208,620.230923 264.383208,616.230923 277.383208,612.830923 C299.683208,607.030923 322.183208,613.330923 337.783208,629.930923 C346.183208,638.930923 348.883208,644.630923 348.783208,653.130923 C348.783208,660.530923 347.283208,663.230923 342.683208,664.430923 C339.483208,665.230923 337.383208,663.430923 333.483208,656.530923 C322.783208,637.630923 298.483208,629.030923 279.783208,637.430923 C267.483208,642.930923 262.683208,652.530923 263.983208,668.930923 C264.583208,677.430923 264.583208,677.830923 262.083208,680.230923 C258.583208,683.830923 251.083208,684.830923 247.583208,682.230923 C243.783208,679.430923 241.283208,673.830923 239.783208,664.730923 C238.983208,660.330923 237.883208,655.830923 237.283208,654.730923 C236.683208,653.630923 233.183208,651.330923 229.583208,649.630923 C223.383208,646.630923 222.083208,646.430923 212.383208,646.430923 C203.283208,646.430923 201.183208,646.730923 196.983208,648.930923 C186.283208,654.130923 180.383208,664.030923 180.383208,676.730923 C180.383208,688.530923 186.083208,697.230923 200.383208,707.630923 C207.783208,713.030923 208.683208,714.230923 207.883208,717.830923 C206.583208,723.630923 204.483208,724.430923 190.683208,724.230923 L178.283208,724.030923 L174.283208,728.030923 C168.783208,733.530923 166.383208,737.830923 166.383208,742.230923 C166.383208,745.630923 166.583208,745.930923 169.283208,745.930923 C170.883208,745.930923 175.283208,745.330923 179.083208,744.530923 C182.783208,743.730923 192.183208,742.430923 199.883208,741.530923 C208.083208,740.630923 220.383208,738.330923 229.783208,735.930923 C238.483208,733.730923 246.483208,731.930923 247.583208,731.930923 C250.983208,731.930923 254.383208,736.430923 254.383208,740.830923 C254.383208,744.530923 253.883208,745.230923 246.183208,752.030923 C241.583208,756.030923 237.383208,760.030923 236.683208,760.830923 C234.983208,763.030923 234.983208,768.330923 236.683208,767.630923 C237.383208,767.330923 241.283208,766.230923 245.383208,765.030923 Z M129.683208,343.030923 C131.683208,341.030923 131.883208,340.030923 131.683208,330.130923 C131.483208,320.030923 131.283208,319.330923 128.883208,317.230923 C126.783208,315.430923 125.083208,314.930923 120.483208,314.930923 C109.583208,314.930923 105.783208,319.830923 106.583208,333.130923 C106.883208,338.430923 107.383208,340.330923 109.283208,342.330923 C112.083208,345.330923 114.083208,345.830923 121.683208,345.530923 C126.083208,345.330923 127.983208,344.830923 129.683208,343.030923 Z M180.683208,344.730923 C184.683208,342.630923 185.283208,340.830923 185.383208,330.730923 C185.383208,319.430923 185.083208,318.330923 181.283208,316.430923 C175.283208,313.230923 165.383208,315.130923 161.983208,320.130923 C159.583208,323.530923 159.683208,340.030923 162.183208,342.230923 C166.083208,345.830923 176.183208,347.130923 180.683208,344.730923 Z M392.783208,344.530923 C397.083208,342.730923 398.383208,339.030923 398.383208,328.830923 C398.383208,322.030923 398.083208,320.730923 395.883208,318.130923 C391.383208,312.730923 379.483208,312.630923 374.183208,317.930923 C371.483208,320.630923 371.383208,321.230923 371.383208,330.230923 C371.383208,339.030923 371.583208,339.830923 373.983208,342.230923 C375.383208,343.630923 377.483208,345.030923 378.683208,345.230923 C383.483208,346.130923 389.583208,345.830923 392.783208,344.530923 Z M74.6832084,343.730923 C78.6832084,341.630923 79.2832084,339.830923 79.3832084,329.630923 C79.3832084,320.230923 79.2832084,319.730923 76.6832084,317.330923 C74.0832084,314.930923 73.2832084,314.730923 66.4832084,315.130923 C59.6832084,315.430923 58.9832084,315.730923 56.2832084,318.730923 C53.6832084,321.630923 53.3832084,322.630923 53.3832084,329.430923 C53.3832084,338.630923 54.4832084,341.630923 58.5832084,343.430923 C62.5832084,345.130923 71.6832084,345.330923 74.6832084,343.730923 Z M236.383208,342.930923 C238.083208,341.230923 238.383208,339.630923 238.383208,330.630923 C238.383208,320.930923 238.183208,320.130923 235.983208,318.030923 C231.383208,313.730923 219.183208,314.030923 214.783208,318.430923 C212.583208,320.630923 212.383208,321.630923 212.383208,330.430923 C212.383208,339.230923 212.583208,340.230923 214.883208,342.430923 C217.083208,344.730923 218.083208,344.930923 225.883208,344.930923 C233.083208,344.930923 234.683208,344.630923 236.383208,342.930923 Z M287.383208,343.130923 C289.383208,341.530923 289.683208,340.330923 289.883208,331.830923 C290.083208,320.730923 289.483208,318.530923 285.483208,316.430923 C279.783208,313.530923 271.483208,314.730923 267.483208,319.030923 C265.683208,321.030923 265.383208,322.530923 265.383208,330.630923 C265.383208,339.530923 265.483208,340.130923 267.983208,342.430923 C270.283208,344.630923 271.583208,344.930923 277.883208,344.930923 C283.383208,344.930923 285.683208,344.530923 287.383208,343.130923 Z M339.883208,344.330923 C342.983208,343.130923 344.383208,338.330923 344.383208,329.430923 C344.383208,321.230923 344.283208,320.630923 341.483208,317.830923 C338.783208,315.230923 337.883208,314.930923 331.883208,314.930923 C325.583208,314.930923 324.983208,315.130923 321.783208,318.330923 C318.483208,321.630923 318.383208,321.930923 318.383208,329.830923 C318.383208,338.030923 319.883208,343.130923 322.583208,344.230923 C324.483208,345.030923 337.883208,345.030923 339.883208,344.330923 Z M449.183208,341.630923 C451.583208,339.230923 451.783208,338.330923 451.783208,329.530923 C451.883208,320.930923 451.683208,319.930923 449.483208,317.530923 C444.883208,312.630923 433.883208,312.830923 428.483208,317.830923 C425.483208,320.630923 425.383208,321.030923 425.383208,329.430923 C425.383208,334.130923 425.883208,338.930923 426.483208,340.030923 C428.283208,343.430923 433.183208,345.030923 440.283208,344.530923 C445.383208,344.230923 447.083208,343.630923 449.183208,341.630923 Z M203.483208,284.530923 C205.883208,283.830923 215.283208,278.830923 224.383208,273.430923 C233.483208,268.130923 247.383208,260.130923 255.383208,255.630923 C263.383208,251.230923 277.983208,243.030923 287.883208,237.430923 C308.783208,225.530923 326.883208,215.730923 337.083208,210.530923 C345.383208,206.430923 349.083208,202.830923 349.983208,198.230923 C351.883208,188.230923 346.783208,182.530923 326.383208,171.530923 C318.383208,167.230923 306.083208,160.430923 298.883208,156.430923 C285.783208,149.130923 256.683208,133.830923 237.383208,123.930923 C231.583208,121.030923 226.183208,118.130923 225.383208,117.430923 C224.583208,116.830923 219.583208,113.830923 214.383208,110.830923 C205.883208,106.030923 204.283208,105.430923 198.883208,105.430923 C191.483208,105.430923 186.083208,108.030923 181.783208,113.730923 C179.708937,116.323762 178.555769,119.532759 178.50521,122.852829 L177.983208,157.130923 L177.983208,157.130923 C177.583208,178.730923 177.483208,212.830923 177.683208,232.930923 C178.083208,273.430923 178.083208,273.530923 185.083208,280.530923 C190.183208,285.630923 195.983208,286.930923 203.483208,284.530923 Z M129.883208,66.9309232 C132.283208,64.7309232 132.383208,63.9309232 132.383208,54.1309232 C132.383208,43.9309232 132.383208,43.7309232 129.383208,40.7309232 C126.483208,37.8309232 125.983208,37.7309232 119.183208,38.1309232 C112.683208,38.4309232 111.883208,38.7309232 109.183208,41.8309232 C107.206429,43.999004 106.221654,46.8922726 106.465308,49.8161168 L106.883208,54.8309232 L106.883208,54.8309232 C107.283208,61.4309232 108.083208,65.0309232 109.083208,66.2309232 C112.983208,70.5309232 125.583208,70.9309232 129.883208,66.9309232 Z M183.483208,67.3309232 C185.083208,65.8309232 185.383208,64.1309232 185.383208,54.4309232 C185.383208,43.9309232 185.283208,43.1309232 182.983208,41.0309232 C177.783208,36.1309232 164.683208,37.4309232 161.783208,43.1309232 C159.383208,47.8309232 160.183208,64.3309232 162.883208,66.4309232 C167.883208,70.2309232 179.783208,70.7309232 183.483208,67.3309232 Z M235.783208,67.5309232 C238.183208,66.0309232 238.383208,65.2309232 238.583208,57.6309232 C238.883208,44.8309232 238.783208,43.8309232 235.983208,41.1309232 C233.983208,39.1309232 232.183208,38.4309232 227.683208,38.1309232 C220.083208,37.6309232 215.283208,39.5309232 213.183208,44.0309232 C210.883208,48.8309232 211.783208,64.1309232 214.483208,66.5309232 C218.383208,70.0309232 231.083208,70.6309232 235.783208,67.5309232 Z M77.1832084,66.7309232 C78.8832084,64.8309232 79.3832084,62.6309232 79.9832084,54.3309232 L80.3908419,48.5075872 C80.5745841,45.8826985 79.4942976,43.3277797 77.4832084,41.6309232 L77.4832084,41.6309232 L77.4832084,41.6309232 C74.5832084,39.2309232 73.4832084,38.9309232 66.4832084,38.9309232 C57.9832084,38.9309232 55.7832084,40.2309232 53.3832084,46.4309232 C52.2832084,49.2309232 52.6832084,59.5309232 53.9832084,64.2309232 C54.8832084,67.2309232 59.3832084,68.8309232 67.4832084,68.9309232 C74.0832084,68.9309232 75.2832084,68.6309232 77.1832084,66.7309232 Z M287.483208,67.0309232 C289.683208,65.2309232 289.883208,64.2309232 290.183208,54.6309232 C290.583208,44.8309232 290.383208,44.1309232 288.083208,41.3309232 C285.883208,38.8309232 284.883208,38.4309232 278.683208,38.1309232 C271.983208,37.7309232 271.483208,37.8309232 268.283208,40.7309232 C266.125185,42.6985329 264.934635,45.5108544 265.023992,48.4298557 L265.183208,53.6309232 L265.183208,53.6309232 C265.383208,63.1309232 265.483208,63.5309232 268.383208,66.2309232 C271.083208,68.6309232 272.183208,68.9309232 278.283208,68.9309232 C283.583208,68.9309232 285.683208,68.5309232 287.483208,67.0309232 Z M341.083208,66.5309232 C343.783208,64.2309232 343.883208,63.6309232 344.183208,54.0309232 C344.583208,43.9309232 344.583208,43.9309232 341.583208,40.9309232 C338.783208,38.1309232 337.983208,37.9309232 331.383208,37.9309232 C324.783208,37.9309232 323.983208,38.1309232 321.283208,40.8309232 C318.483208,43.6309232 318.383208,44.1309232 318.383208,53.1309232 C318.383208,66.5309232 320.283208,68.7309232 332.083208,68.8309232 C337.283208,68.9309232 338.783208,68.5309232 341.083208,66.5309232 Z M395.883208,66.4309232 C398.183208,64.2309232 398.383208,63.3309232 398.383208,53.5309232 C398.383208,43.1309232 398.383208,43.1309232 395.283208,40.5309232 C392.783208,38.4309232 391.183208,37.9309232 386.483208,37.9309232 C374.283208,37.9309232 371.383208,41.0309232 371.383208,53.6309232 C371.383208,66.3309232 373.883208,68.9309232 386.183208,68.9309232 C392.583208,68.9309232 393.783208,68.6309232 395.883208,66.4309232 Z M449.483208,66.0309232 C452.283208,63.2309232 452.383208,62.7309232 452.383208,54.2309232 C452.383208,45.5309232 452.283208,45.2309232 449.183208,42.2309232 C445.283208,38.6309232 441.683208,37.6309232 435.783208,38.5309232 C432.783208,38.9309232 430.383208,40.1309232 428.383208,42.1309232 C425.083208,45.3309232 424.883208,47.4309232 426.083208,58.9309232 C426.583208,64.5309232 426.983208,65.3309232 429.783208,67.0309232 C431.983208,68.4309232 434.783208,68.9309232 439.683208,68.9309232 C445.883208,68.9309232 446.783208,68.6309232 449.483208,66.0309232 Z" id="Shape" fill="#000000"></path>
                <path d="M80.4832084,778.909606 C87.3832084,775.509606 91.5832084,769.809606 100.583208,752.009606 C105.083208,743.209606 109.783208,734.209606 111.183208,732.109606 L113.583208,728.209606 L110.783208,726.109606 C106.283208,722.909606 101.483208,717.509606 97.0832084,710.609606 C93.4832084,705.009606 92.8832084,704.409606 91.7832084,705.909606 C89.7832084,708.709606 81.3832084,735.009606 81.3832084,738.609606 C81.3832084,748.109606 77.1832084,753.509606 69.8832084,753.509606 C58.8832084,753.509606 53.6832084,741.709606 55.5832084,720.409606 C56.9832084,702.809606 63.7832084,681.409606 70.1832084,674.209606 C71.5832084,672.609606 71.5832084,672.309606 70.3832084,671.509606 C69.5832084,670.909606 68.2832084,670.509606 67.4832084,670.509606 C66.6832084,670.509606 63.5832084,669.109606 60.6832084,667.509606 L55.2832084,664.409606 L51.2832084,673.009606 C42.8832084,691.309606 39.0832084,708.909606 39.0832084,729.509606 C39.0832084,747.709606 40.7832084,756.909606 45.6832084,766.409606 C52.9832084,780.609606 67.0832084,785.709606 80.4832084,778.909606 Z" id="Path" fill="#FFFFFF"></path>
                <path d="M447.583208,779.676655 C453.083208,777.776655 461.483208,769.676655 464.383208,763.476655 C467.883208,756.076655 469.483208,747.276655 470.083208,732.676655 C470.683208,716.876655 468.383208,699.976655 463.783208,686.376655 C460.783208,677.476655 453.283208,662.176655 452.683208,663.976655 C452.083208,665.476655 447.483208,667.976655 442.283208,669.576655 L438.583208,670.676655 L443.383208,680.376655 C446.483208,686.876655 449.183208,694.576655 451.383208,703.376655 C454.283208,715.176655 454.583208,717.676655 454.183208,727.276655 C453.783208,736.276655 453.283208,738.776655 451.083208,743.476655 C446.983208,751.676655 440.983208,754.676655 434.083208,751.776655 C429.083208,749.676655 427.383208,745.876655 427.383208,736.476655 C427.383208,732.176655 426.483208,725.076655 425.483208,720.676655 C424.483208,716.276655 423.383208,711.076655 422.983208,709.076655 C422.683208,707.176655 421.783208,704.676655 420.983208,703.676655 C419.783208,701.976655 419.483208,702.176655 416.583208,706.376655 C414.883208,708.876655 409.283208,714.776655 404.283208,719.476655 L395.083208,727.976655 L400.083208,736.876655 C402.883208,741.676655 407.483208,750.176655 410.283208,755.676655 C417.383208,769.376655 421.783208,774.976655 428.283208,778.376655 C434.483208,781.576655 440.583208,781.976655 447.583208,779.676655 Z" id="Path" fill="#FFFFFF"></path>
                <path d="M245.383208,765.030923 C249.483208,763.930923 261.183208,761.130923 271.283208,758.930923 C292.983208,754.130923 302.783208,750.530923 312.983208,743.730923 C325.383208,735.430923 331.083208,726.930923 335.383208,710.230923 C336.883208,704.130923 340.683208,703.630923 349.983208,708.030923 C355.883208,710.730923 357.983208,711.230923 364.383208,711.230923 C375.183208,711.330923 381.183208,709.030923 388.783208,701.830923 C399.083208,692.230923 404.383208,679.630923 404.383208,664.630923 C404.383208,659.830923 404.883208,656.830923 405.683208,656.130923 C406.283208,655.630923 411.083208,654.630923 416.283208,654.030923 C422.583208,653.330923 427.483208,652.130923 430.883208,650.530923 C437.483208,647.230923 445.783208,638.830923 449.083208,632.130923 C451.383208,627.430923 451.583208,626.030923 451.183208,618.630923 C450.483208,605.830923 446.183208,598.630923 434.983208,591.230923 C429.483208,587.530923 428.983208,588.030923 443.283208,582.830923 C453.783208,579.030923 460.883208,573.630923 464.683208,566.530923 C467.983208,560.230923 467.783208,548.430923 464.083208,540.430923 C462.483208,537.130923 460.383208,533.430923 459.283208,532.330923 C456.083208,528.930923 445.783208,524.630923 441.783208,525.130923 C439.183208,525.430923 438.383208,525.130923 438.383208,523.930923 C438.483208,520.830923 441.083208,517.830923 447.383208,513.630923 C454.983208,508.730923 459.383208,503.230923 462.383208,495.230923 C465.583208,486.830923 464.983208,471.930923 461.183208,463.730923 C455.683208,451.830923 445.083208,444.030923 431.183208,441.830923 C427.683208,441.230923 424.483208,440.330923 423.883208,439.830923 C423.283208,439.230923 422.783208,428.530923 422.583208,413.130923 C422.383208,390.530923 422.083208,387.230923 420.683208,386.230923 C419.383208,385.230923 384.583208,384.930923 254.683208,384.930923 L90.3832084,384.930923 L89.9832084,387.230923 C88.6832084,393.030923 88.6832084,398.730923 89.5832084,415.330923 C90.2832084,428.330923 90.2832084,434.230923 89.4832084,437.030923 C88.3832084,440.530923 88.0832084,440.730923 82.5832084,441.730923 C79.4832084,442.330923 74.3832084,443.730923 71.2832084,444.830923 C56.3832084,450.430923 48.3832084,465.430923 49.6832084,485.130923 C50.3832084,496.330923 54.2832084,503.030923 65.1832084,512.130923 C72.1832084,518.030923 73.4832084,519.530923 73.1832084,521.730923 C72.9832084,523.930923 72.0832084,524.730923 68.8832084,525.730923 C54.7832084,530.130923 51.5832084,532.730923 48.3832084,542.530923 C45.3832084,551.430923 45.5832084,558.730923 48.8832084,565.530923 C53.2832084,574.530923 61.8832084,580.630923 72.5832084,582.430923 C74.5832084,582.730923 77.2832084,583.930923 78.5832084,585.030923 L80.8832084,586.930923 L77.3832084,589.630923 C66.4832084,598.130923 64.3832084,601.630923 61.1832084,617.030923 C58.7832084,628.530923 65.2832084,642.030923 76.3832084,648.730923 C83.2832084,652.830923 86.9832084,653.830923 98.6832084,654.730923 L107.883208,655.430923 L107.583208,663.130923 C106.783208,683.230923 113.183208,697.330923 128.383208,708.430923 C132.983208,711.830923 142.883208,715.930923 146.283208,715.930923 C147.183208,715.830923 150.983208,712.930923 154.783208,709.330923 L161.583208,702.730923 L158.983208,697.930923 C155.383208,691.430923 153.483208,674.930923 155.083208,665.330923 C157.883208,648.930923 168.283208,635.430923 183.383208,628.130923 C195.383208,622.430923 199.283208,621.530923 212.883208,621.530923 C224.483208,621.530923 225.183208,621.630923 233.783208,625.230923 C238.683208,627.230923 243.783208,629.930923 245.083208,631.130923 L247.583208,633.430923 L250.683208,629.430923 C257.983208,620.230923 264.383208,616.230923 277.383208,612.830923 C299.683208,607.030923 322.183208,613.330923 337.783208,629.930923 C346.183208,638.930923 348.883208,644.630923 348.783208,653.130923 C348.783208,660.530923 347.283208,663.230923 342.683208,664.430923 C339.483208,665.230923 337.383208,663.430923 333.483208,656.530923 C322.783208,637.630923 298.483208,629.030923 279.783208,637.430923 C267.483208,642.930923 262.683208,652.530923 263.983208,668.930923 C264.583208,677.430923 264.583208,677.830923 262.083208,680.230923 C258.583208,683.830923 251.083208,684.830923 247.583208,682.230923 C243.783208,679.430923 241.283208,673.830923 239.783208,664.730923 C238.983208,660.330923 237.883208,655.830923 237.283208,654.730923 C236.683208,653.630923 233.183208,651.330923 229.583208,649.630923 C223.383208,646.630923 222.083208,646.430923 212.383208,646.430923 C203.283208,646.430923 201.183208,646.730923 196.983208,648.930923 C186.283208,654.130923 180.383208,664.030923 180.383208,676.730923 C180.383208,688.530923 186.083208,697.230923 200.383208,707.630923 C207.783208,713.030923 208.683208,714.230923 207.883208,717.830923 C206.583208,723.630923 204.483208,724.430923 190.683208,724.230923 L178.283208,724.030923 L174.283208,728.030923 C168.783208,733.530923 166.383208,737.830923 166.383208,742.230923 C166.383208,745.630923 166.583208,745.930923 169.283208,745.930923 C170.883208,745.930923 175.283208,745.330923 179.083208,744.530923 C182.783208,743.730923 192.183208,742.430923 199.883208,741.530923 C208.083208,740.630923 220.383208,738.330923 229.783208,735.930923 C238.483208,733.730923 246.483208,731.930923 247.583208,731.930923 C250.983208,731.930923 254.383208,736.430923 254.383208,740.830923 C254.383208,744.530923 253.883208,745.230923 246.183208,752.030923 C241.583208,756.030923 237.383208,760.030923 236.683208,760.830923 C234.983208,763.030923 234.983208,768.330923 236.683208,767.630923 C237.383208,767.330923 241.283208,766.230923 245.383208,765.030923 Z" id="Path" fill="#FFFFFF"></path>
                <path d="M129.683208,66.3756812 C131.683208,64.3756812 131.883208,63.3756812 131.683208,53.4756812 C131.483208,43.3756812 131.283208,42.6756812 128.883208,40.5756812 C126.783208,38.7756812 125.083208,38.2756812 120.483208,38.2756812 C109.583208,38.2756812 105.783208,43.1756812 106.583208,56.4756812 C106.883208,61.7756812 107.383208,63.6756812 109.283208,65.6756812 C112.083208,68.6756812 114.083208,69.1756812 121.683208,68.8756812 C126.083208,68.6756812 127.983208,68.1756812 129.683208,66.3756812 Z" id="Path" fill="#FFFFFF"></path>
                <path d="M180.683208,67.8050809 C184.683208,65.7050809 185.283208,63.9050809 185.383208,53.8050809 C185.383208,42.5050809 185.083208,41.4050809 181.283208,39.5050809 C175.283208,36.3050809 165.383208,38.2050809 161.983208,43.2050809 C159.583208,46.6050809 159.683208,63.1050809 162.183208,65.3050809 C166.083208,68.9050809 176.183208,70.2050809 180.683208,67.8050809 Z" id="Path" fill="#FFFFFF"></path>
                <path d="M392.783208,68.6472421 C397.083208,66.8472421 398.383208,63.1472421 398.383208,52.9472421 C398.383208,46.1472421 398.083208,44.8472421 395.883208,42.2472421 C391.383208,36.8472421 379.483208,36.7472421 374.183208,42.0472421 C371.483208,44.7472421 371.383208,45.3472421 371.383208,54.3472421 C371.383208,63.1472421 371.583208,63.9472421 373.983208,66.3472421 C375.383208,67.7472421 377.483208,69.1472421 378.683208,69.3472421 C383.483208,70.2472421 389.583208,69.9472421 392.783208,68.6472421 Z" id="Path" fill="#FFFFFF"></path>
                <path d="M74.6832084,67.8191921 C78.6832084,65.7191921 79.2832084,63.9191921 79.3832084,53.7191921 C79.3832084,44.3191921 79.2832084,43.8191921 76.6832084,41.4191921 C74.0832084,39.0191921 73.2832084,38.8191921 66.4832084,39.2191921 C59.6832084,39.5191921 58.9832084,39.8191921 56.2832084,42.8191921 C53.6832084,45.7191921 53.3832084,46.7191921 53.3832084,53.5191921 C53.3832084,62.7191921 54.4832084,65.7191921 58.5832084,67.5191921 C62.5832084,69.2191921 71.6832084,69.4191921 74.6832084,67.8191921 Z" id="Path" fill="#FFFFFF"></path>
                <path d="M236.383208,66.9190543 C238.083208,65.2190543 238.383208,63.6190543 238.383208,54.6190543 C238.383208,44.9190543 238.183208,44.1190543 235.983208,42.0190543 C231.383208,37.7190543 219.183208,38.0190543 214.783208,42.4190543 C212.583208,44.6190543 212.383208,45.6190543 212.383208,54.4190543 C212.383208,63.2190543 212.583208,64.2190543 214.883208,66.4190543 C217.083208,68.7190543 218.083208,68.9190543 225.883208,68.9190543 C233.083208,68.9190543 234.683208,68.6190543 236.383208,66.9190543 Z" id="Path" fill="#FFFFFF"></path>
                <path d="M287.383208,67.2370628 C289.383208,65.6370628 289.683208,64.4370628 289.883208,55.9370628 C290.083208,44.8370628 289.483208,42.6370628 285.483208,40.5370628 C279.783208,37.6370628 271.483208,38.8370628 267.483208,43.1370628 C265.683208,45.1370628 265.383208,46.6370628 265.383208,54.7370628 C265.383208,63.6370628 265.483208,64.2370628 267.983208,66.5370628 C270.283208,68.7370628 271.583208,69.0370628 277.883208,69.0370628 C283.383208,69.0370628 285.683208,68.6370628 287.383208,67.2370628 Z" id="Path" fill="#FFFFFF"></path>
                <path d="M339.883208,68.4381527 C342.983208,67.2381527 344.383208,62.4381527 344.383208,53.5381527 C344.383208,45.3381527 344.283208,44.7381527 341.483208,41.9381527 C338.783208,39.3381527 337.883208,39.0381527 331.883208,39.0381527 C325.583208,39.0381527 324.983208,39.2381527 321.783208,42.4381527 C318.483208,45.7381527 318.383208,46.0381527 318.383208,53.9381527 C318.383208,62.1381527 319.883208,67.2381527 322.583208,68.3381527 C324.483208,69.1381527 337.883208,69.1381527 339.883208,68.4381527 Z" id="Path" fill="#FFFFFF"></path>
                <path d="M449.183208,66.9263465 C451.583208,64.5263465 451.783208,63.6263465 451.783208,54.8263465 C451.883208,46.2263465 451.683208,45.2263465 449.483208,42.8263465 C444.883208,37.9263465 433.883208,38.1263465 428.483208,43.1263465 C425.483208,45.9263465 425.383208,46.3263465 425.383208,54.7263465 C425.383208,59.4263465 425.883208,64.2263465 426.483208,65.3263465 C428.283208,68.7263465 433.183208,70.3263465 440.283208,69.8263465 C445.383208,69.5263465 447.083208,68.9263465 449.183208,66.9263465 Z" id="Path" fill="#FFFFFF"></path>
                <path d="M203.483208,277.2871 C205.883208,276.5871 215.283208,271.5871 224.383208,266.1871 C233.483208,260.8871 247.383208,252.8871 255.383208,248.3871 C263.383208,243.9871 277.983208,235.7871 287.883208,230.1871 C308.783208,218.2871 326.883208,208.4871 337.083208,203.2871 C345.383208,199.1871 349.083208,195.5871 349.983208,190.9871 C351.883208,180.9871 346.783208,175.2871 326.383208,164.2871 C318.383208,159.9871 306.083208,153.1871 298.883208,149.1871 C285.783208,141.8871 256.683208,126.5871 237.383208,116.6871 C231.583208,113.7871 226.183208,110.8871 225.383208,110.1871 C224.583208,109.5871 219.583208,106.5871 214.383208,103.5871 C205.883208,98.7870998 204.283208,98.1870998 198.883208,98.1870998 C191.483208,98.1870998 186.083208,100.7871 181.783208,106.4871 C179.708937,109.079939 178.555769,112.288936 178.50521,115.609005 L177.983208,149.8871 L177.983208,149.8871 C177.583208,171.4871 177.483208,205.5871 177.683208,225.6871 C178.083208,266.1871 178.083208,266.2871 185.083208,273.2871 C190.183208,278.3871 195.983208,279.6871 203.483208,277.2871 Z" id="Path" fill="#FFFFFF"></path>
                <path d="M129.883208,343.145469 C132.283208,340.945469 132.383208,340.145469 132.383208,330.345469 C132.383208,320.145469 132.383208,319.945469 129.383208,316.945469 C126.483208,314.045469 125.983208,313.945469 119.183208,314.345469 C112.683208,314.645469 111.883208,314.945469 109.183208,318.045469 C107.206429,320.21355 106.221654,323.106818 106.465308,326.030662 L106.883208,331.045469 L106.883208,331.045469 C107.283208,337.645469 108.083208,341.245469 109.083208,342.445469 C112.983208,346.745469 125.583208,347.145469 129.883208,343.145469 Z" id="Path" fill="#FFFFFF"></path>
                <path d="M183.483208,343.602157 C185.083208,342.102157 185.383208,340.402157 185.383208,330.702157 C185.383208,320.202157 185.283208,319.402157 182.983208,317.302157 C177.783208,312.402157 164.683208,313.702157 161.783208,319.402157 C159.383208,324.102157 160.183208,340.602157 162.883208,342.702157 C167.883208,346.502157 179.783208,347.002157 183.483208,343.602157 Z" id="Path" fill="#FFFFFF"></path>
                <path d="M235.783208,343.817991 C238.183208,342.317991 238.383208,341.517991 238.583208,333.917991 C238.883208,321.117991 238.783208,320.117991 235.983208,317.417991 C233.983208,315.417991 232.183208,314.717991 227.683208,314.417991 C220.083208,313.917991 215.283208,315.817991 213.183208,320.317991 C210.883208,325.117991 211.783208,340.417991 214.483208,342.817991 C218.383208,346.317991 231.083208,346.917991 235.783208,343.817991 Z" id="Path" fill="#FFFFFF"></path>
                <path d="M77.1832084,342.751278 C78.8832084,340.851278 79.3832084,338.651278 79.9832084,330.351278 L80.3908419,324.527942 C80.5745841,321.903053 79.4942976,319.348135 77.4832084,317.651278 L77.4832084,317.651278 L77.4832084,317.651278 C74.5832084,315.251278 73.4832084,314.951278 66.4832084,314.951278 C57.9832084,314.951278 55.7832084,316.251278 53.3832084,322.451278 C52.2832084,325.251278 52.6832084,335.551278 53.9832084,340.251278 C54.8832084,343.251278 59.3832084,344.851278 67.4832084,344.951278 C74.0832084,344.951278 75.2832084,344.651278 77.1832084,342.751278 Z" id="Path" fill="#FFFFFF"></path>
                <path d="M287.483208,344.021618 C289.683208,342.221618 289.883208,341.221618 290.183208,331.621618 C290.583208,321.821618 290.383208,321.121618 288.083208,318.321618 C285.883208,315.821618 284.883208,315.421618 278.683208,315.121618 C271.983208,314.721618 271.483208,314.821618 268.283208,317.721618 C266.125185,319.689227 264.934635,322.501549 265.023992,325.42055 L265.183208,330.621618 L265.183208,330.621618 C265.383208,340.121618 265.483208,340.521618 268.383208,343.221618 C271.083208,345.621618 272.183208,345.921618 278.283208,345.921618 C283.583208,345.921618 285.683208,345.521618 287.483208,344.021618 Z" id="Path" fill="#FFFFFF"></path>
                <path d="M341.083208,343.637229 C343.783208,341.337229 343.883208,340.737229 344.183208,331.137229 C344.583208,321.037229 344.583208,321.037229 341.583208,318.037229 C338.783208,315.237229 337.983208,315.037229 331.383208,315.037229 C324.783208,315.037229 323.983208,315.237229 321.283208,317.937229 C318.483208,320.737229 318.383208,321.237229 318.383208,330.237229 C318.383208,343.637229 320.283208,345.837229 332.083208,345.937229 C337.283208,346.037229 338.783208,345.637229 341.083208,343.637229 Z" id="Path" fill="#FFFFFF"></path>
                <path d="M395.883208,343.451278 C398.183208,341.251278 398.383208,340.351278 398.383208,330.551278 C398.383208,320.151278 398.383208,320.151278 395.283208,317.551278 C392.783208,315.451278 391.183208,314.951278 386.483208,314.951278 C374.283208,314.951278 371.383208,318.051278 371.383208,330.651278 C371.383208,343.351278 373.883208,345.951278 386.183208,345.951278 C392.583208,345.951278 393.783208,345.651278 395.883208,343.451278 Z" id="Path" fill="#FFFFFF"></path>
                <path d="M449.483208,342.762276 C452.283208,339.962276 452.383208,339.462276 452.383208,330.962276 C452.383208,322.262276 452.283208,321.962276 449.183208,318.962276 C445.283208,315.362276 441.683208,314.362276 435.783208,315.262276 C432.783208,315.662276 430.383208,316.862276 428.383208,318.862276 C425.083208,322.062276 424.883208,324.162276 426.083208,335.662276 C426.583208,341.262276 426.983208,342.062276 429.783208,343.762276 C431.983208,345.162276 434.783208,345.662276 439.683208,345.662276 C445.883208,345.662276 446.783208,345.362276 449.483208,342.762276 Z" id="Path" fill="#FFFFFF"></path>
                <path d="M137.483208,584.930923 C128.383208,583.030923 117.883208,574.830923 113.983208,566.630923 C107.983208,554.030923 110.383208,538.330923 119.983208,527.030923 C124.883208,521.430923 130.683208,518.230923 138.483208,517.030923 C154.583208,514.430923 167.183208,520.830923 174.683208,535.430923 C177.383208,540.730923 177.783208,542.430923 177.883208,549.930923 C177.883208,557.630923 177.583208,559.130923 174.483208,565.430923 C170.083208,574.230923 163.383208,581.030923 156.883208,583.330923 C150.583208,585.430923 143.083208,586.030923 137.483208,584.930923 Z M151.283208,570.130923 C157.283208,565.730923 157.283208,556.530923 151.283208,551.430923 C147.483208,548.330923 142.583208,548.130923 136.583208,551.030923 C130.683208,553.930923 128.683208,558.330923 130.583208,564.330923 C132.983208,572.030923 144.383208,575.230923 151.283208,570.130923 Z" id="Shape" fill="#000000"></path>
                <path d="M357.083208,582.530923 C341.583208,576.030923 334.683208,564.730923 335.583208,547.530923 C336.083208,537.930923 338.483208,532.130923 344.583208,525.930923 C350.883208,519.330923 358.083208,516.530923 368.383208,516.430923 C376.083208,516.430923 377.583208,516.730923 383.583208,519.730923 C391.083208,523.430923 395.083208,527.630923 399.083208,535.930923 C406.683208,552.030923 399.683208,573.330923 384.083208,581.330923 C375.883208,585.530923 365.283208,586.030923 357.083208,582.530923 Z M373.783208,571.530923 C383.483208,567.530923 384.983208,554.730923 376.383208,549.630923 C365.683208,543.230923 351.983208,557.730923 359.583208,567.430923 C361.583208,570.030923 366.483208,572.830923 369.183208,572.930923 C369.883208,572.930923 371.883208,572.330923 373.783208,571.530923 Z" id="Shape" fill="#000000"></path>
                <path d="M289.083208,547.530923 C287.483208,546.630923 283.183208,545.030923 279.583208,543.930923 C272.383208,541.830923 265.383208,537.830923 261.483208,533.530923 C260.083208,532.130923 258.483208,530.930923 257.683208,530.930923 C256.983208,530.930923 253.983208,533.130923 250.883208,535.930923 C244.783208,541.530923 240.283208,544.030923 232.483208,546.330923 C220.083208,549.930923 212.483208,547.130923 212.383208,538.930923 C212.383208,531.530923 218.983208,525.130923 229.383208,522.430923 C234.783208,521.030923 236.783208,519.930923 241.183208,515.630923 L241.492731,515.327353 C244.620756,512.259482 246.383208,508.062289 246.383208,503.680923 L246.383208,496.830923 L246.383208,486.375919 C246.383208,484.348625 245.370019,482.455464 243.683208,481.330923 L243.683208,481.330923 L243.683208,481.330923 C239.683208,478.730923 231.483208,478.330923 227.283208,480.430923 C220.183208,484.130923 216.383208,487.930923 215.183208,492.630923 C212.383208,504.030923 203.983208,506.330923 195.183208,498.130923 C189.383208,492.730923 191.983208,485.830923 204.883208,472.830923 C213.783208,463.930923 217.883208,461.530923 228.483208,459.330923 C237.683208,457.430923 244.883208,458.630923 252.983208,463.530923 L254.577546,464.498914 C256.973789,465.953776 260.029638,465.725565 262.183208,463.930923 L262.183208,463.930923 L262.183208,463.930923 C274.883208,453.830923 297.983208,458.130923 311.883208,473.130923 C317.383208,479.030923 321.483208,485.830923 322.783208,491.130923 C323.983208,496.230923 315.783208,502.930923 308.383208,502.930923 C304.083208,502.930923 301.783208,500.130923 300.983208,493.630923 C300.183208,487.430923 299.183208,486.230923 291.783208,482.530923 C285.283208,479.230923 276.483208,478.930923 271.783208,481.830923 C269.845044,483.01883 268.624017,485.092333 268.525274,487.363423 L268.098912,497.169748 C268.088443,497.410531 268.077104,497.651275 268.064894,497.891976 L267.723533,504.621663 C267.506596,508.898433 269.087227,513.071197 272.083208,516.130923 L272.083208,516.130923 L272.083208,516.130923 C275.683208,519.730923 278.283208,521.330923 282.383208,522.530923 C293.583208,525.830923 296.283208,527.130923 299.783208,531.030923 C302.583208,534.030923 303.383208,535.830923 303.383208,538.730923 C303.383208,545.730923 295.183208,550.730923 289.083208,547.530923 Z" id="Path" fill="#000000"></path>
                <path d="M402.483208,503.030923 C397.583208,498.130923 397.783208,486.830923 402.883208,483.530923 C409.583208,479.130923 420.383208,485.630923 420.383208,494.030923 C420.383208,501.630923 407.483208,508.030923 402.483208,503.030923 Z" id="Path" fill="#000000"></path>
                <path d="M98.6832084,502.730923 C91.7832084,499.330923 92.5832084,486.430923 99.9832084,483.130923 C106.783208,479.930923 112.083208,482.730923 114.383208,490.630923 C116.783208,498.730923 113.383208,503.930923 105.683208,503.830923 C102.983208,503.830923 99.8832084,503.330923 98.6832084,502.730923 Z" id="Path" fill="#000000"></path>
                <path d="M124.783208,500.930923 C118.683208,498.530923 115.983208,487.330923 120.383208,482.930923 C124.783208,478.530923 135.183208,481.730923 137.983208,488.430923 C139.183208,491.430923 139.183208,492.430923 137.983208,495.330923 C135.583208,501.030923 130.483208,503.230923 124.783208,500.930923 Z" id="Path" fill="#000000"></path>
                <path d="M379.083208,500.930923 C376.783208,499.430923 374.383208,494.630923 374.383208,491.430923 C374.383208,488.030923 376.783208,483.430923 379.583208,481.530923 C380.783208,480.630923 383.783208,479.930923 386.083208,479.930923 C389.783208,479.930923 390.483208,480.330923 391.883208,482.930923 C394.383208,487.730923 393.883208,494.430923 390.683208,497.930923 C387.583208,501.330923 382.083208,502.730923 379.083208,500.930923 Z" id="Path" fill="#000000"></path>
            </g>
        </g>
        <g id="glass" transform="translate(40.000000, 143.000000)" fill-rule="nonzero">
            <path d="M18,72 L18,89 L8.4,89 L8.40066762,88.9942527 C8.30089506,88.9980733 8.20066194,89 8.1,89 C3.62649353,89 0,85.1944203 0,80.5 C0,75.8055797 3.62649353,72 8.1,72 C8.20066194,72 8.30089506,72.0019267 8.40066762,72.0057473 L8.4,72 L18,72 Z" id="Combined-Shape" fill="#1A1F30"></path>
            <path d="M404,89 L404,72 L413.714286,72 L413.714567,72.0519092 C417.812601,72.5218503 421,76.1249102 421,80.5 C421,84.8750898 417.812601,88.4781497 413.714567,88.9480908 L413.714286,89 L404,89 Z" id="Combined-Shape" fill="#1A1F30"></path>
            <path d="M211.5,51 C227.240115,51 240,60.9138342 240,73.1431685 C240,78.3877253 237.653294,83.2064324 233.731213,87 C233.734557,86.874798 233.736264,86.7483644 233.736264,86.6216188 C233.736264,76.8735985 223.640531,68.9712672 211.186813,68.9712672 C198.841484,68.9712672 188.813273,76.7366446 188.639651,86.3675224 C185.096955,82.6778968 183,78.1007967 183,73.1431685 C183,60.9138342 195.759885,51 211.5,51 Z" id="Combined-Shape" fill="#1A1F30"></path>
            <ellipse id="Oval" fill="#1A1F30" cx="106" cy="92" rx="90" ry="92"></ellipse>
            <ellipse id="Oval" fill="#1A1F30" cx="316" cy="92" rx="90" ry="92"></ellipse>
            <g id="example" transform="translate(28.000000, 15.000000)">
                <path d="M132.191482,132.318023 C118.175461,146.335401 98.8454967,155 77.5,155 C56.1542254,155 36.8240354,146.335176 22.8079708,132.317476 L132.191482,132.318023 Z" id="Combined-Shape" fill="#FCEAC5"></path>
                <path d="M148.795053,107.744727 C144.738284,117.273835 138.841917,125.824981 131.554158,132.94814 L23.4458419,132.94814 C16.1580828,125.824981 10.2617163,117.273835 6.20494714,107.744727 L148.795053,107.744727 Z" id="Combined-Shape" fill="#FD6B2C"></path>
                <path d="M148.794849,107.745205 L6.20515075,107.745205 C2.40480632,98.8185885 0.218795103,89.0337554 0.0155724852,78.7606578 L154.984427,78.7606578 C154.781205,89.0337554 152.595194,98.8185885 148.794849,107.745205 Z" id="Combined-Shape" fill="#FD2257"></path>
                <path d="M155,77.8150407 C155,78.1307315 154.998128,78.4459833 154.994393,78.7607858 L0.00759183673,78.7601626 L0,77.8150407 C0,68.4052055 1.66346788,59.3854735 4.71124791,51.036135 L150.28849,51.0354187 C153.336437,59.3849575 155,68.4049365 155,77.8150407 Z" id="Combined-Shape" fill="#9544A7"></path>
                <path d="M150.288926,51.0366099 L4.71107458,51.0366099 C8.13527711,41.6558788 13.3069197,33.1213866 19.8300923,25.8306529 L135.169907,25.8306529 C141.69308,33.1213866 146.864723,41.6558788 150.288926,51.0366099 Z" id="Combined-Shape" fill="#3295E5"></path>
                <path d="M77.5,0 C100.401685,0 120.983241,9.97403294 135.170975,25.8318454 L19.8290254,25.8318454 C34.0167591,9.97403294 54.5983151,0 77.5,0 Z" id="Combined-Shape" fill="#44F3FB"></path>
            </g>
            <g id="example" transform="translate(239.000000, 15.000000)">
                <path d="M132.191482,132.318023 C118.175461,146.335401 98.8454967,155 77.5,155 C56.1542254,155 36.8240354,146.335176 22.8079708,132.317476 L132.191482,132.318023 Z" id="Combined-Shape" fill="#FCEAC5"></path>
                <path d="M148.795053,107.744727 C144.738284,117.273835 138.841917,125.824981 131.554158,132.94814 L23.4458419,132.94814 C16.1580828,125.824981 10.2617163,117.273835 6.20494714,107.744727 L148.795053,107.744727 Z" id="Combined-Shape" fill="#FD6B2C"></path>
                <path d="M148.794849,107.745205 L6.20515075,107.745205 C2.40480632,98.8185885 0.218795103,89.0337554 0.0155724852,78.7606578 L154.984427,78.7606578 C154.781205,89.0337554 152.595194,98.8185885 148.794849,107.745205 Z" id="Combined-Shape" fill="#FD2257"></path>
                <path d="M155,77.8150407 C155,78.1307315 154.998128,78.4459833 154.994393,78.7607858 L0.00759183673,78.7601626 L0,77.8150407 C0,68.4052055 1.66346788,59.3854735 4.71124791,51.036135 L150.28849,51.0354187 C153.336437,59.3849575 155,68.4049365 155,77.8150407 Z" id="Combined-Shape" fill="#9544A7"></path>
                <path d="M150.288926,51.0366099 L4.71107458,51.0366099 C8.13527711,41.6558788 13.3069197,33.1213866 19.8300923,25.8306529 L135.169907,25.8306529 C141.69308,33.1213866 146.864723,41.6558788 150.288926,51.0366099 Z" id="Combined-Shape" fill="#3295E5"></path>
                <path d="M77.5,0 C100.401685,0 120.983241,9.97403294 135.170975,25.8318454 L19.8290254,25.8318454 C34.0167591,9.97403294 54.5983151,0 77.5,0 Z" id="Combined-Shape" fill="#44F3FB"></path>
            </g>
        </g>
    </g>
</svg>